# xmcd CD database file
#
# Track frame offsets:
#	150
#	22923
#	33018
#	46529
#	69413
#	82484
#	95278
#	110709
#	124552
#	147305
#	161360
#	180004
#	193246
#	224437
#	260297
#	304683
#
# Disc length: 4413 seconds
#
# Revision: 0
# Processed by: cddbd v1.5.2PL0 Copyright (c) Steve Scherf et al.
# Submitted via: CDex 1.70beta2
#
DISCID=cd113b10
DTITLE=Chet Baker - Seven Classic Albums - Vol.2 - CD2
DYEAR=1957
DGENRE=Jazz
TTITLE0=Hollywood
TTITLE1=Let Me Be Loved (vocal version)
TTITLE2=Do It The Hard Way
TTITLE3=I'm Old Fashioned
TTITLE4=You're Driving Me Crasy
TTITLE5=It Could Happen To You
TTITLE6=My Heart Stood Still
TTITLE7=The More I See You
TTITLE8=Everything Happens To Me
TTITLE9=Dacing On The Ceiling
TTITLE10=How Long Has This Been Going On
TTITLE11=Old Devil Moon
TTITLE12=Fair Weather
TTITLE13=Polka Dots And Moonbeams
TTITLE14=Hotel 49
TTITLE15=Solar
EXTD=YEAR: 1957
EXTT0=
EXTT1=
EXTT2=
EXTT3=
EXTT4=
EXTT5=
EXTT6=
EXTT7=
EXTT8=
EXTT9=
EXTT10=
EXTT11=
EXTT12=
EXTT13=
EXTT14=
EXTT15=
PLAYORDER=
